<svg version="1.1" id="Layer_1" xmlns="http://www.w3.org/2000/svg" xmlns:xlink="http://www.w3.org/1999/xlink" x="0px" y="0px"
	 width="100%" viewBox="0 0 1375 1375" enable-background="new 0 0 1375 1375" xml:space="preserve">
<path fill="#FFECCC" opacity="1.000000" stroke="none" 
	d="
M940.000000,1376.000000 
	C626.666687,1376.000000 313.833344,1376.000000 1.000000,1376.000000 
	C1.000000,917.666687 1.000000,459.333344 1.000000,1.000000 
	C459.333344,1.000000 917.666687,1.000000 1376.000000,1.000000 
	C1376.000000,459.333344 1376.000000,917.666687 1376.000000,1376.000000 
	C1230.833374,1376.000000 1085.666626,1376.000000 940.000000,1376.000000 
M1112.082031,762.500000 
	C1112.082397,656.679138 1112.089111,550.858215 1112.069824,445.037354 
	C1112.068481,437.707733 1112.339478,430.336578 1111.690063,423.055573 
	C1108.388428,386.048401 1094.589111,353.333527 1069.642822,325.812164 
	C1037.285645,290.114807 996.822998,270.261475 948.468628,270.138123 
	C766.157776,269.672943 583.844910,269.888092 401.533081,270.093719 
	C390.798126,270.105804 379.865784,271.341949 369.366699,273.597595 
	C325.186523,283.089294 290.326172,306.820343 264.981689,344.241241 
	C247.382065,370.226898 237.134674,398.950836 237.085999,430.424469 
	C236.822098,601.070740 236.944717,771.717529 236.950577,942.364136 
	C236.950729,946.860474 236.798615,951.394165 237.289459,955.847351 
	C242.279236,1001.117493 261.925323,1038.843872 296.754578,1068.162109 
	C326.561829,1093.252930 361.260864,1106.881226 400.343689,1106.920410 
	C630.816528,1107.151489 861.289734,1107.045776 1091.762817,1107.040405 
	C1104.713501,1107.040161 1112.062256,1099.569702 1112.063965,1086.462280 
	C1112.077515,978.808167 1112.077759,871.154114 1112.082031,762.500000 
z"/>
<path fill="#D5511A" opacity="1.000000" stroke="none" 
	d="
M1112.082031,763.000000 
	C1112.077759,871.154114 1112.077515,978.808167 1112.063965,1086.462280 
	C1112.062256,1099.569702 1104.713501,1107.040161 1091.762817,1107.040405 
	C861.289734,1107.045776 630.816528,1107.151489 400.343689,1106.920410 
	C361.260864,1106.881226 326.561829,1093.252930 296.754578,1068.162109 
	C261.925323,1038.843872 242.279236,1001.117493 237.289459,955.847351 
	C236.798615,951.394165 236.950729,946.860474 236.950577,942.364136 
	C236.944717,771.717529 236.822098,601.070740 237.085999,430.424469 
	C237.134674,398.950836 247.382065,370.226898 264.981689,344.241241 
	C290.326172,306.820343 325.186523,283.089294 369.366699,273.597595 
	C379.865784,271.341949 390.798126,270.105804 401.533081,270.093719 
	C583.844910,269.888092 766.157776,269.672943 948.468628,270.138123 
	C996.822998,270.261475 1037.285645,290.114807 1069.642822,325.812164 
	C1094.589111,353.333527 1108.388428,386.048401 1111.690063,423.055573 
	C1112.339478,430.336578 1112.068481,437.707733 1112.069824,445.037354 
	C1112.089111,550.858215 1112.082397,656.679138 1112.082031,763.000000 
M455.052094,695.520813 
	C455.383545,698.327087 455.548889,701.164673 456.071442,703.934875 
	C463.863251,745.241333 495.763184,781.567688 539.581726,789.127686 
	C557.766418,792.265137 576.046936,791.328491 594.376831,791.194763 
	C654.367432,790.757019 714.363159,790.771973 774.355286,791.011963 
	C783.408630,791.048218 792.821533,792.018066 801.416382,794.669189 
	C814.392029,798.671509 826.688599,804.821045 839.475220,809.508545 
	C848.796936,812.925964 858.272217,816.414673 867.986633,818.151428 
	C881.324280,820.536011 892.764282,810.010132 892.246765,798.033936 
	C891.988831,792.064880 892.873840,786.055786 892.881470,780.064392 
	C892.983337,700.572937 893.115051,621.081299 893.022888,541.589966 
	C892.991638,514.634766 893.495911,487.601440 891.641357,460.749878 
	C890.097778,438.402100 879.073914,419.531647 862.400452,404.447083 
	C841.742615,385.757874 816.987915,378.165253 789.455566,378.186279 
	C719.795959,378.239532 650.136292,378.103912 580.476624,378.149994 
	C569.160461,378.157501 557.743286,377.851196 546.549072,379.177612 
	C520.420044,382.273651 497.677734,392.739105 479.802887,412.654907 
	C461.906555,432.594635 454.116150,456.271759 454.073151,482.689117 
	C453.975555,542.683167 454.004791,602.677551 454.098602,662.671692 
	C454.115234,673.317383 454.692841,683.962158 455.052094,695.520813 
M772.531250,994.042175 
	C793.408630,988.631958 805.798401,974.894592 811.016357,952.862183 
	C816.813416,977.086975 831.155090,990.748596 853.859009,994.773987 
	C875.902954,998.682556 895.547791,994.182495 909.831055,974.312378 
	C915.657654,988.166138 926.374756,994.304688 940.000977,995.706360 
	C953.215027,997.065674 965.895508,995.749451 976.049988,984.309570 
	C976.244568,986.871765 976.572693,988.217590 976.402527,989.497192 
	C975.850525,993.647400 977.456299,995.084534 981.663940,994.847046 
	C987.644958,994.509460 993.659058,994.686951 999.657593,994.763794 
	C1002.498779,994.800171 1003.896240,993.923767 1003.871826,990.751892 
	C1003.722900,971.421570 1004.254822,952.069641 1003.512207,932.765198 
	C1002.842407,915.354736 994.931091,901.956909 977.569885,896.235291 
	C960.298157,890.543213 943.014832,892.353088 926.108521,898.234375 
	C921.512695,899.833130 917.263855,902.429504 912.482788,904.748962 
	C916.293457,912.122681 919.672546,918.661255 923.135071,925.361328 
	C925.166809,924.241821 926.501526,923.571777 927.771790,922.796204 
	C937.585144,916.805481 948.271912,915.183960 959.447632,916.911438 
	C969.248169,918.426392 975.555115,926.964539 973.522522,936.033508 
	C970.852844,936.033508 968.045166,935.953735 965.243347,936.048157 
	C955.770081,936.367493 946.229309,936.150024 936.842834,937.242615 
	C921.809631,938.992493 912.092957,947.668884 909.574829,960.459106 
	C909.046814,963.141174 908.983948,965.914917 908.648071,969.223633 
	C903.190918,966.267639 898.122192,963.805969 893.362061,960.847778 
	C889.961853,958.734802 888.123474,959.274048 885.698181,962.493530 
	C878.277954,972.344116 865.267334,975.037415 854.331787,969.465698 
	C843.793701,964.096497 839.352478,954.396057 840.776245,939.857971 
	C842.186951,925.452209 854.711121,915.554810 869.037903,917.283081 
	C877.826233,918.343262 884.018250,923.109924 888.767456,930.788269 
	C896.319702,926.726746 903.557617,922.834229 911.073792,918.792114 
	C902.717468,901.596252 888.580933,894.310669 871.329346,893.495850 
	C841.163940,892.071289 819.724304,904.522583 811.520081,933.699646 
	C807.595764,926.602966 804.452759,918.139404 799.007935,911.589172 
	C782.032898,891.167725 749.694214,887.289246 725.045837,901.788025 
	C698.983337,917.118591 693.370728,956.897156 714.275940,978.752563 
	C730.264221,995.467651 749.990417,998.654785 772.531250,994.042175 
M453.589844,989.973511 
	C472.230225,999.056030 490.139099,999.424622 507.092957,985.030945 
	C507.194946,986.782959 507.456421,988.100769 507.311523,989.372253 
	C506.850433,993.419006 508.338501,995.046814 512.591309,994.820618 
	C518.574097,994.502441 524.588013,994.649658 530.585083,994.773315 
	C533.407349,994.831482 534.933289,994.117065 534.909302,990.910095 
	C534.763733,971.413330 535.167175,951.901245 534.518372,932.423157 
	C534.043518,918.165894 528.173767,906.248779 515.135132,899.012878 
	C505.500977,893.666260 494.899658,892.777710 484.123749,893.081055 
	C471.094177,893.447754 458.713898,896.342102 447.348267,902.858521 
	C446.108276,903.569397 444.466736,905.908447 444.814575,906.692078 
	C447.610718,912.992188 450.839935,919.100037 454.071991,925.536011 
	C456.550598,924.062378 458.204742,922.947693 459.969666,922.051086 
	C471.043976,916.425171 482.603302,914.067017 494.635681,918.281311 
	C502.355469,920.985107 505.945557,927.683838 504.701752,936.040771 
	C502.660126,936.040771 500.528809,935.978088 498.402191,936.051453 
	C488.097137,936.407043 477.722656,936.173157 467.505951,937.327148 
	C452.741394,938.994751 442.705994,948.169617 440.481659,960.803772 
	C439.972412,963.696350 440.026184,966.687988 439.796265,969.986511 
	C437.915436,970.090088 436.297699,970.254517 434.679749,970.256775 
	C417.514191,970.280701 400.347229,970.165405 383.183960,970.367065 
	C379.104950,970.414978 377.797913,969.303589 377.821442,965.076477 
	C377.994080,934.079285 377.913361,903.080750 377.912506,872.082581 
	C377.912445,869.970764 377.912476,867.858948 377.912476,865.524658 
	C367.688690,865.524658 358.118073,865.524658 348.207520,865.524658 
	C348.207520,908.681335 348.207520,951.549316 348.207520,994.521118 
	C379.937225,994.521118 411.294250,994.521118 443.112244,994.521118 
	C443.112244,989.664551 443.112244,985.273743 443.112244,980.732971 
	C446.637115,983.880371 449.816193,986.718994 453.589844,989.973511 
M631.628662,894.941589 
	C652.163757,884.030579 670.667358,887.151062 687.624268,903.561340 
	C692.236816,899.325806 696.755371,895.207397 701.239197,891.051575 
	C707.162231,885.561707 707.150269,885.485413 701.155212,880.174133 
	C700.905762,879.953125 700.650452,879.738831 700.395447,879.524292 
	C681.166565,863.346375 658.980774,859.807251 635.158142,865.086548 
	C610.213562,870.614319 592.954163,885.602356 585.852295,910.278748 
	C578.958923,934.231079 583.218079,956.492554 600.349670,975.425354 
	C624.299194,1001.893005 668.042419,1002.669434 693.555054,985.691223 
	C698.265320,982.556519 702.300598,978.407471 707.064636,974.373413 
	C701.038025,968.712280 695.966553,963.924622 690.861816,959.172607 
	C689.794495,958.178955 688.604309,957.317139 687.488953,956.409424 
	C664.982605,980.364075 633.137329,971.727478 621.785950,956.139343 
	C607.692078,936.785156 611.787292,908.519836 631.628662,894.941589 
z"/>
<path fill="#FFEAC9" opacity="1.000000" stroke="none" 
	d="
M455.031738,695.064087 
	C454.692841,683.962158 454.115234,673.317383 454.098602,662.671692 
	C454.004791,602.677551 453.975555,542.683167 454.073151,482.689117 
	C454.116150,456.271759 461.906555,432.594635 479.802887,412.654907 
	C497.677734,392.739105 520.420044,382.273651 546.549072,379.177612 
	C557.743286,377.851196 569.160461,378.157501 580.476624,378.149994 
	C650.136292,378.103912 719.795959,378.239532 789.455566,378.186279 
	C816.987915,378.165253 841.742615,385.757874 862.400452,404.447083 
	C879.073914,419.531647 890.097778,438.402100 891.641357,460.749878 
	C893.495911,487.601440 892.991638,514.634766 893.022888,541.589966 
	C893.115051,621.081299 892.983337,700.572937 892.881470,780.064392 
	C892.873840,786.055786 891.988831,792.064880 892.246765,798.033936 
	C892.764282,810.010132 881.324280,820.536011 867.986633,818.151428 
	C858.272217,816.414673 848.796936,812.925964 839.475220,809.508545 
	C826.688599,804.821045 814.392029,798.671509 801.416382,794.669189 
	C792.821533,792.018066 783.408630,791.048218 774.355286,791.011963 
	C714.363159,790.771973 654.367432,790.757019 594.376831,791.194763 
	C576.046936,791.328491 557.766418,792.265137 539.581726,789.127686 
	C495.763184,781.567688 463.863251,745.241333 456.071442,703.934875 
	C455.548889,701.164673 455.383545,698.327087 455.031738,695.064087 
M686.500000,419.940338 
	C643.007019,419.949371 599.506470,419.479675 556.024231,420.168121 
	C534.090698,420.515411 516.337036,430.437469 504.029968,449.048126 
	C496.612152,460.265228 495.635071,472.995239 495.660126,485.962128 
	C495.780792,548.457825 495.821533,610.953674 495.972046,673.449280 
	C495.985626,679.089417 496.319641,684.757324 496.948761,690.362549 
	C500.285248,720.088379 515.960388,738.784912 544.293762,746.646973 
	C553.854980,749.299988 563.639343,750.618713 573.032654,749.718933 
	C570.928650,744.855957 567.754150,740.524902 567.285522,735.918579 
	C565.181396,715.233398 563.806763,694.473083 562.252686,673.733521 
	C561.602600,665.058716 561.827820,664.596680 570.586304,664.468506 
	C587.068115,664.227234 603.556213,664.438904 620.040466,664.308350 
	C623.462280,664.281250 624.016357,666.473755 624.767700,668.917786 
	C627.409668,677.512207 633.412964,682.932129 642.044006,683.029114 
	C666.535828,683.304199 691.033936,683.254700 715.526917,683.036499 
	C723.114624,682.968933 729.728577,679.307678 731.855835,672.025269 
	C733.825195,665.283447 737.357361,663.874451 743.289734,664.756592 
	C744.102234,664.877502 744.952942,664.724670 745.785950,664.725952 
	C760.266174,664.748047 774.747681,664.887390 789.226013,664.734375 
	C793.859680,664.685425 794.897278,667.108826 794.740112,670.931152 
	C794.685364,672.260986 794.554138,673.588074 794.439636,674.914917 
	C793.294373,688.180603 792.427551,701.478333 790.911987,714.701721 
	C789.596497,726.179382 791.742310,738.464600 782.717285,749.114441 
	C799.460632,747.674438 813.396545,753.773010 827.482178,759.294189 
	C832.590881,761.296631 837.707764,763.293945 842.897339,765.070190 
	C848.998779,767.158569 850.741882,765.984558 850.990845,759.467590 
	C851.276917,751.977234 851.351318,744.475159 851.352295,736.978149 
	C851.360596,675.482727 851.267700,613.987244 851.342224,552.491943 
	C851.372131,527.832581 852.096008,503.170532 851.875000,478.515320 
	C851.570312,444.522614 826.191406,419.692291 793.977722,419.827362 
	C758.485596,419.976196 722.992615,419.911682 686.500000,419.940338 
z"/>
<path fill="#FEE9C7" opacity="1.000000" stroke="none" 
	d="
M772.126648,994.131104 
	C749.990417,998.654785 730.264221,995.467651 714.275940,978.752563 
	C693.370728,956.897156 698.983337,917.118591 725.045837,901.788025 
	C749.694214,887.289246 782.032898,891.167725 799.007935,911.589172 
	C804.452759,918.139404 807.595764,926.602966 811.520081,933.699646 
	C819.724304,904.522583 841.163940,892.071289 871.329346,893.495850 
	C888.580933,894.310669 902.717468,901.596252 911.073792,918.792114 
	C903.557617,922.834229 896.319702,926.726746 888.767456,930.788269 
	C884.018250,923.109924 877.826233,918.343262 869.037903,917.283081 
	C854.711121,915.554810 842.186951,925.452209 840.776245,939.857971 
	C839.352478,954.396057 843.793701,964.096497 854.331787,969.465698 
	C865.267334,975.037415 878.277954,972.344116 885.698181,962.493530 
	C888.123474,959.274048 889.961853,958.734802 893.362061,960.847778 
	C898.122192,963.805969 903.190918,966.267639 908.648071,969.223633 
	C908.983948,965.914917 909.046814,963.141174 909.574829,960.459106 
	C912.092957,947.668884 921.809631,938.992493 936.842834,937.242615 
	C946.229309,936.150024 955.770081,936.367493 965.243347,936.048157 
	C968.045166,935.953735 970.852844,936.033508 973.522522,936.033508 
	C975.555115,926.964539 969.248169,918.426392 959.447632,916.911438 
	C948.271912,915.183960 937.585144,916.805481 927.771790,922.796204 
	C926.501526,923.571777 925.166809,924.241821 923.135071,925.361328 
	C919.672546,918.661255 916.293457,912.122681 912.482788,904.748962 
	C917.263855,902.429504 921.512695,899.833130 926.108521,898.234375 
	C943.014832,892.353088 960.298157,890.543213 977.569885,896.235291 
	C994.931091,901.956909 1002.842407,915.354736 1003.512207,932.765198 
	C1004.254822,952.069641 1003.722900,971.421570 1003.871826,990.751892 
	C1003.896240,993.923767 1002.498779,994.800171 999.657593,994.763794 
	C993.659058,994.686951 987.644958,994.509460 981.663940,994.847046 
	C977.456299,995.084534 975.850525,993.647400 976.402527,989.497192 
	C976.572693,988.217590 976.244568,986.871765 976.049988,984.309570 
	C965.895508,995.749451 953.215027,997.065674 940.000977,995.706360 
	C926.374756,994.304688 915.657654,988.166138 909.831055,974.312378 
	C895.547791,994.182495 875.902954,998.682556 853.859009,994.773987 
	C831.155090,990.748596 816.813416,977.086975 811.016357,952.862183 
	C805.798401,974.894592 793.408630,988.631958 772.126648,994.131104 
M747.483459,918.754395 
	C737.725403,922.346069 732.542542,929.703796 731.315735,939.665649 
	C730.015808,950.221252 731.955994,959.998901 740.899353,967.085999 
	C749.337769,973.772827 763.333679,973.751160 771.702881,967.171570 
	C781.499512,959.469727 784.701782,943.040710 778.809265,930.712219 
	C773.589050,919.790405 761.736511,915.043884 747.483459,918.754395 
M950.778381,976.169983 
	C953.110107,976.165527 955.455566,976.324158 957.771240,976.129395 
	C969.845642,975.113708 976.981506,965.097900 973.853210,952.465759 
	C964.784119,952.943481 955.436829,952.797913 946.301453,954.118469 
	C938.959656,955.179810 935.790833,961.308594 937.945740,967.859985 
	C939.808838,973.524048 944.376282,975.571167 950.778381,976.169983 
z"/>
<path fill="#FEE9C7" opacity="1.000000" stroke="none" 
	d="
M453.292572,989.765564 
	C449.816193,986.718994 446.637115,983.880371 443.112244,980.732971 
	C443.112244,985.273743 443.112244,989.664551 443.112244,994.521118 
	C411.294250,994.521118 379.937225,994.521118 348.207520,994.521118 
	C348.207520,951.549316 348.207520,908.681335 348.207520,865.524658 
	C358.118073,865.524658 367.688690,865.524658 377.912476,865.524658 
	C377.912476,867.858948 377.912445,869.970764 377.912506,872.082581 
	C377.913361,903.080750 377.994080,934.079285 377.821442,965.076477 
	C377.797913,969.303589 379.104950,970.414978 383.183960,970.367065 
	C400.347229,970.165405 417.514191,970.280701 434.679749,970.256775 
	C436.297699,970.254517 437.915436,970.090088 439.796265,969.986511 
	C440.026184,966.687988 439.972412,963.696350 440.481659,960.803772 
	C442.705994,948.169617 452.741394,938.994751 467.505951,937.327148 
	C477.722656,936.173157 488.097137,936.407043 498.402191,936.051453 
	C500.528809,935.978088 502.660126,936.040771 504.701752,936.040771 
	C505.945557,927.683838 502.355469,920.985107 494.635681,918.281311 
	C482.603302,914.067017 471.043976,916.425171 459.969666,922.051086 
	C458.204742,922.947693 456.550598,924.062378 454.071991,925.536011 
	C450.839935,919.100037 447.610718,912.992188 444.814575,906.692078 
	C444.466736,905.908447 446.108276,903.569397 447.348267,902.858521 
	C458.713898,896.342102 471.094177,893.447754 484.123749,893.081055 
	C494.899658,892.777710 505.500977,893.666260 515.135132,899.012878 
	C528.173767,906.248779 534.043518,918.165894 534.518372,932.423157 
	C535.167175,951.901245 534.763733,971.413330 534.909302,990.910095 
	C534.933289,994.117065 533.407349,994.831482 530.585083,994.773315 
	C524.588013,994.649658 518.574097,994.502441 512.591309,994.820618 
	C508.338501,995.046814 506.850433,993.419006 507.311523,989.372253 
	C507.456421,988.100769 507.194946,986.782959 507.092957,985.030945 
	C490.139099,999.424622 472.230225,999.056030 453.292572,989.765564 
M481.776093,976.163086 
	C483.940613,976.180603 486.116699,976.351990 488.267700,976.190063 
	C500.690247,975.255005 508.077972,965.137329 504.919647,952.893127 
	C500.897888,952.893127 496.746918,952.687683 492.624420,952.942566 
	C486.852173,953.299438 481.030518,953.622559 475.365601,954.683838 
	C471.554138,955.397888 469.155518,958.352905 468.571960,962.439636 
	C467.958038,966.739014 468.998688,970.621765 472.628815,973.008545 
	C475.025696,974.584534 478.104736,975.123169 481.776093,976.163086 
z"/>
<path fill="#FEE9C7" opacity="1.000000" stroke="none" 
	d="
M631.324646,895.148254 
	C611.787292,908.519836 607.692078,936.785156 621.785950,956.139343 
	C633.137329,971.727478 664.982605,980.364075 687.488953,956.409424 
	C688.604309,957.317139 689.794495,958.178955 690.861816,959.172607 
	C695.966553,963.924622 701.038025,968.712280 707.064636,974.373413 
	C702.300598,978.407471 698.265320,982.556519 693.555054,985.691223 
	C668.042419,1002.669434 624.299194,1001.893005 600.349670,975.425354 
	C583.218079,956.492554 578.958923,934.231079 585.852295,910.278748 
	C592.954163,885.602356 610.213562,870.614319 635.158142,865.086548 
	C658.980774,859.807251 681.166565,863.346375 700.395447,879.524292 
	C700.650452,879.738831 700.905762,879.953125 701.155212,880.174133 
	C707.150269,885.485413 707.162231,885.561707 701.239197,891.051575 
	C696.755371,895.207397 692.236816,899.325806 687.624268,903.561340 
	C670.667358,887.151062 652.163757,884.030579 631.324646,895.148254 
z"/>
<path fill="#D4521B" opacity="1.000000" stroke="none" 
	d="
M687.000000,419.940247 
	C722.992615,419.911682 758.485596,419.976196 793.977722,419.827362 
	C826.191406,419.692291 851.570312,444.522614 851.875000,478.515320 
	C852.096008,503.170532 851.372131,527.832581 851.342224,552.491943 
	C851.267700,613.987244 851.360596,675.482727 851.352295,736.978149 
	C851.351318,744.475159 851.276917,751.977234 850.990845,759.467590 
	C850.741882,765.984558 848.998779,767.158569 842.897339,765.070190 
	C837.707764,763.293945 832.590881,761.296631 827.482178,759.294189 
	C813.396545,753.773010 799.460632,747.674438 782.717285,749.114441 
	C791.742310,738.464600 789.596497,726.179382 790.911987,714.701721 
	C792.427551,701.478333 793.294373,688.180603 794.439636,674.914917 
	C794.554138,673.588074 794.685364,672.260986 794.740112,670.931152 
	C794.897278,667.108826 793.859680,664.685425 789.226013,664.734375 
	C774.747681,664.887390 760.266174,664.748047 745.785950,664.725952 
	C744.952942,664.724670 744.102234,664.877502 743.289734,664.756592 
	C737.357361,663.874451 733.825195,665.283447 731.855835,672.025269 
	C729.728577,679.307678 723.114624,682.968933 715.526917,683.036499 
	C691.033936,683.254700 666.535828,683.304199 642.044006,683.029114 
	C633.412964,682.932129 627.409668,677.512207 624.767700,668.917786 
	C624.016357,666.473755 623.462280,664.281250 620.040466,664.308350 
	C603.556213,664.438904 587.068115,664.227234 570.586304,664.468506 
	C561.827820,664.596680 561.602600,665.058716 562.252686,673.733521 
	C563.806763,694.473083 565.181396,715.233398 567.285522,735.918579 
	C567.754150,740.524902 570.928650,744.855957 573.032654,749.718933 
	C563.639343,750.618713 553.854980,749.299988 544.293762,746.646973 
	C515.960388,738.784912 500.285248,720.088379 496.948761,690.362549 
	C496.319641,684.757324 495.985626,679.089417 495.972046,673.449280 
	C495.821533,610.953674 495.780792,548.457825 495.660126,485.962128 
	C495.635071,472.995239 496.612152,460.265228 504.029968,449.048126 
	C516.337036,430.437469 534.090698,420.515411 556.024231,420.168121 
	C599.506470,419.479675 643.007019,419.949371 687.000000,419.940247 
M695.500000,602.097046 
	C648.519043,602.092529 601.538086,602.060669 554.557129,602.103821 
	C543.506226,602.113953 539.124084,606.481934 538.894287,617.573730 
	C538.773499,623.399719 538.994751,629.232056 539.004639,635.061584 
	C539.026733,648.098511 543.253479,652.278931 556.477417,652.262268 
	C580.633850,652.231750 604.790344,652.196533 628.946777,652.163940 
	C630.861816,652.161316 632.776917,652.163574 634.600830,652.163574 
	C636.216553,668.967224 642.809814,671.459656 651.072205,671.711182 
	C669.713501,672.278687 688.388855,672.165466 707.039734,671.794617 
	C716.481323,671.606873 721.799072,665.840210 722.875366,656.354675 
	C723.018311,655.094910 723.251099,653.845276 723.500366,652.210449 
	C725.777100,652.210449 727.751221,652.210083 729.725342,652.210510 
	C754.381958,652.215881 779.039124,652.312012 803.695007,652.184631 
	C814.429565,652.129211 819.069763,647.336487 819.089355,636.990417 
	C819.101013,630.826355 819.114807,624.662048 819.068115,618.498291 
	C818.976379,606.371033 814.595215,602.055481 802.457397,602.059937 
	C767.138245,602.072815 731.819153,602.084778 695.500000,602.097046 
M710.454590,473.207275 
	C704.771973,460.621063 696.070435,451.660309 681.690186,449.946777 
	C675.358276,449.192261 671.253784,453.571808 672.171021,459.944580 
	C672.616089,463.036804 673.429138,466.210449 674.772095,469.013489 
	C678.565979,476.931915 676.390259,483.606506 670.918518,489.590576 
	C668.012634,492.768494 664.785767,495.684784 661.493225,498.470306 
	C655.274719,503.731201 648.484070,508.381927 642.677795,514.050964 
	C626.963379,529.393860 631.558777,557.124756 651.542419,566.215637 
	C661.475586,570.734436 666.342529,568.575439 666.844788,557.558899 
	C666.875122,556.893860 666.962830,556.218018 666.885803,555.563477 
	C665.779968,546.167297 670.645874,539.610168 677.431641,534.236206 
	C683.156982,529.701965 689.292236,525.689270 695.171814,521.345276 
	C711.677612,509.150513 716.794678,493.499359 710.454590,473.207275 
z"/>
<path fill="#D2541E" opacity="1.000000" stroke="none" 
	d="
M747.854187,918.609375 
	C761.736511,915.043884 773.589050,919.790405 778.809265,930.712219 
	C784.701782,943.040710 781.499512,959.469727 771.702881,967.171570 
	C763.333679,973.751160 749.337769,973.772827 740.899353,967.085999 
	C731.955994,959.998901 730.015808,950.221252 731.315735,939.665649 
	C732.542542,929.703796 737.725403,922.346069 747.854187,918.609375 
z"/>
<path fill="#CF5621" opacity="1.000000" stroke="none" 
	d="
M950.329773,976.147644 
	C944.376282,975.571167 939.808838,973.524048 937.945740,967.859985 
	C935.790833,961.308594 938.959656,955.179810 946.301453,954.118469 
	C955.436829,952.797913 964.784119,952.943481 973.853210,952.465759 
	C976.981506,965.097900 969.845642,975.113708 957.771240,976.129395 
	C955.455566,976.324158 953.110107,976.165527 950.329773,976.147644 
z"/>
<path fill="#CF5721" opacity="1.000000" stroke="none" 
	d="
M481.327209,976.144653 
	C478.104736,975.123169 475.025696,974.584534 472.628815,973.008545 
	C468.998688,970.621765 467.958038,966.739014 468.571960,962.439636 
	C469.155518,958.352905 471.554138,955.397888 475.365601,954.683838 
	C481.030518,953.622559 486.852173,953.299438 492.624420,952.942566 
	C496.746918,952.687683 500.897888,952.893127 504.919647,952.893127 
	C508.077972,965.137329 500.690247,975.255005 488.267700,976.190063 
	C486.116699,976.351990 483.940613,976.180603 481.327209,976.144653 
z"/>
<path fill="#FFEBCA" opacity="1.000000" stroke="none" 
	d="
M696.000000,602.097046 
	C731.819153,602.084778 767.138245,602.072815 802.457397,602.059937 
	C814.595215,602.055481 818.976379,606.371033 819.068115,618.498291 
	C819.114807,624.662048 819.101013,630.826355 819.089355,636.990417 
	C819.069763,647.336487 814.429565,652.129211 803.695007,652.184631 
	C779.039124,652.312012 754.381958,652.215881 729.725342,652.210510 
	C727.751221,652.210083 725.777100,652.210449 723.500366,652.210449 
	C723.251099,653.845276 723.018311,655.094910 722.875366,656.354675 
	C721.799072,665.840210 716.481323,671.606873 707.039734,671.794617 
	C688.388855,672.165466 669.713501,672.278687 651.072205,671.711182 
	C642.809814,671.459656 636.216553,668.967224 634.600830,652.163574 
	C632.776917,652.163574 630.861816,652.161316 628.946777,652.163940 
	C604.790344,652.196533 580.633850,652.231750 556.477417,652.262268 
	C543.253479,652.278931 539.026733,648.098511 539.004639,635.061584 
	C538.994751,629.232056 538.773499,623.399719 538.894287,617.573730 
	C539.124084,606.481934 543.506226,602.113953 554.557129,602.103821 
	C601.538086,602.060669 648.519043,602.092529 696.000000,602.097046 
z"/>
<path fill="#FEE9C8" opacity="1.000000" stroke="none" 
	d="
M710.602783,473.570007 
	C716.794678,493.499359 711.677612,509.150513 695.171814,521.345276 
	C689.292236,525.689270 683.156982,529.701965 677.431641,534.236206 
	C670.645874,539.610168 665.779968,546.167297 666.885803,555.563477 
	C666.962830,556.218018 666.875122,556.893860 666.844788,557.558899 
	C666.342529,568.575439 661.475586,570.734436 651.542419,566.215637 
	C631.558777,557.124756 626.963379,529.393860 642.677795,514.050964 
	C648.484070,508.381927 655.274719,503.731201 661.493225,498.470306 
	C664.785767,495.684784 668.012634,492.768494 670.918518,489.590576 
	C676.390259,483.606506 678.565979,476.931915 674.772095,469.013489 
	C673.429138,466.210449 672.616089,463.036804 672.171021,459.944580 
	C671.253784,453.571808 675.358276,449.192261 681.690186,449.946777 
	C696.070435,451.660309 704.771973,460.621063 710.602783,473.570007 
z"/>
</svg>